<svg width="82" height="82" viewBox="0 0 82 82" fill="none" xmlns="http://www.w3.org/2000/svg">
<g clip-path="url(#clip0_2_682)">
<path d="M38.7578 61.6035L39.3703 62.098C35.2184 64.8679 30.3367 66.3405 25.3457 66.3287C11.3442 66.3287 0 54.9999 0 40.9984C0 27.0097 11.3442 15.6681 25.3303 15.6681C30.5245 15.6681 35.3548 17.2158 39.36 19.8834C39.1627 20.0473 38.9745 20.2218 38.7962 20.4062C32.8077 25.5824 29.3637 33.0982 29.3637 40.9984C29.3637 48.8986 32.7949 56.4144 38.7604 61.6035H38.7578ZM56.6697 15.6681C51.6789 15.6527 46.7959 17.1199 42.64 19.8834C42.8424 20.0577 43.0423 20.2319 43.2038 20.4062C46.1619 22.9604 48.5354 26.1216 50.163 29.6749C51.7906 33.2281 52.6342 37.0901 52.6363 40.9984C52.6363 48.8883 49.2051 56.4016 43.2396 61.6035C43.0366 61.7697 42.8325 61.9346 42.6272 62.098C46.7782 64.8696 51.6605 66.3424 56.6517 66.3287C70.6533 66.3287 81.9974 54.9999 81.9974 40.9984C81.9974 27.0097 70.6533 15.6681 56.6671 15.6681H56.6697ZM41 21.1006C37.9825 23.4657 35.543 26.4867 33.8665 29.9347C32.1901 33.3826 31.3206 37.167 31.324 41.001C31.319 44.837 32.1877 48.6238 33.8643 52.0741C35.5408 55.5243 37.9811 58.5475 41 60.9141C41.3357 60.6605 41.6432 60.394 41.9609 60.1146C44.7001 57.7407 46.8962 54.805 48.4 51.5069C49.9038 48.2088 50.68 44.6257 50.676 41.001C50.679 37.1671 49.8094 33.3828 48.1329 29.9349C46.4565 26.487 44.0172 23.4659 41 21.1006Z" fill="#F5F5F5"/>
</g>
<defs>
<clipPath id="clip0_2_682">
<rect width="82" height="82" fill="white"/>
</clipPath>
</defs>
</svg>
