<svg width="71" height="71" viewBox="0 0 71 71" fill="none" xmlns="http://www.w3.org/2000/svg">
<path d="M59.3652 25.0808C60.8207 27.6842 61.01 31.0389 60.2527 34.9232C58.0635 46.1826 50.5612 50.0699 40.9821 50.0699H39.503C38.9361 50.0707 38.3881 50.2738 37.9575 50.6425C37.527 51.0113 37.2421 51.5215 37.154 52.0815L37.0357 52.7324L35.172 64.545L35.0773 65.0479C34.9892 65.6076 34.7042 66.1175 34.2736 66.4858C33.8429 66.854 33.295 67.0565 32.7284 67.0566H22.8387C22.6323 67.0566 22.4284 67.0118 22.241 66.9254C22.0535 66.839 21.8871 66.7131 21.753 66.5562C21.6189 66.3993 21.5203 66.2153 21.4642 66.0167C21.408 65.8181 21.3955 65.6097 21.4275 65.4059L21.9453 62.1251H26.436L29.2464 44.3159H33.3437C47.1828 44.3159 56.2708 37.7987 59.3652 25.0808ZM50.6085 10.0229C52.8628 12.5907 53.5166 15.3775 52.8332 19.741C52.777 20.1049 52.7149 20.451 52.6498 20.806C50.4754 31.9678 43.5115 36.9171 32.0716 36.9171H26.4981C24.6344 36.9171 23.025 38.1419 22.4925 39.8814L22.4511 39.8755L19.6999 57.3119H9.23329C9.21127 57.3118 9.18954 57.3069 9.16962 57.2975C9.1497 57.2881 9.13207 57.2745 9.11798 57.2576C9.10388 57.2407 9.09366 57.2209 9.08803 57.1996C9.08239 57.1783 9.08149 57.156 9.08538 57.1344L16.7711 8.29229C16.8748 7.63064 17.2113 7.02775 17.72 6.59221C18.2288 6.15668 18.8763 5.91714 19.546 5.91675H37.225C43.6831 5.91675 48.2182 7.30421 50.6056 10.0229H50.6085Z" fill="#F5F5F5"/>
</svg>
