<svg width="80" height="80" viewBox="0 0 80 80" fill="none" xmlns="http://www.w3.org/2000/svg">
<g clip-path="url(#clip0_2_684)">
<path d="M30.3733 27.5369L19.9 52.5236H13.0667L7.91333 32.5802C7.6 31.3536 7.33 30.9036 6.37667 30.3869C4.82333 29.5436 2.25667 28.7536 0 28.2602L0.153333 27.5369H11.1533C11.8722 27.5362 12.5676 27.7925 13.114 28.2595C13.6605 28.7265 14.022 29.3734 14.1333 30.0836L16.8567 44.5436L23.5833 27.5369H30.3733ZM57.15 44.3669C57.1767 37.7702 48.03 37.4069 48.0933 34.4602C48.1133 33.5636 48.9667 32.6102 50.8333 32.3669C53.021 32.1591 55.2241 32.5461 57.21 33.4869L58.3433 28.1869C56.4099 27.4601 54.3622 27.0842 52.2967 27.0769C45.9067 27.0769 41.41 30.4769 41.37 35.3402C41.33 38.9369 44.58 40.9402 47.03 42.1402C49.55 43.3636 50.3967 44.1502 50.3833 45.2436C50.3667 46.9236 48.3767 47.6602 46.5167 47.6902C43.2667 47.7402 41.3833 46.8136 39.8767 46.1136L38.7067 51.5869C40.2167 52.2802 43.0033 52.8869 45.8933 52.9136C52.6833 52.9136 57.1267 49.5602 57.15 44.3669ZM74.02 52.5236H80L74.7833 27.5369H69.2633C68.6735 27.5314 68.0957 27.7033 67.6048 28.0302C67.1138 28.3571 66.7324 28.824 66.51 29.3702L56.8133 52.5236H63.6L64.95 48.7902H73.2433L74.02 52.5236ZM66.81 43.6702L70.21 34.2869L72.17 43.6702H66.81ZM39.61 27.5369L34.2667 52.5236H27.8L33.15 27.5369H39.61Z" fill="#F5F5F5"/>
</g>
<defs>
<clipPath id="clip0_2_684">
<rect width="80" height="80" fill="white"/>
</clipPath>
</defs>
</svg>
